<svg xmlns="http://www.w3.org/2000/svg" viewBox="0 0 48 48">
  <path d="M24.607422 4.0429688C24.347041 4.0335549 24.0813 4.0541387 23.814453 4.1074219L8.6171875 7.1464844C6.5228355 7.5659519 5 9.4229991 5 11.558594L5 36.441406C5 38.576376 6.5230144 40.434668 8.6171875 40.853516L23.814453 43.892578C25.758786 44.281191 27.556602 42.890921 27.875 41L37.5 41C40.519774 41 43 38.519774 43 35.5L43 13.5C43 10.480226 40.519774 8 37.5 8L28 8L28 7.5390625C28 5.6340003 26.430086 4.1088659 24.607422 4.0429688 z M 24.402344 7.0488281C24.741566 6.9810934 25 7.1922764 25 7.5390625L25 40.460938C25 40.807724 24.741273 41.019122 24.402344 40.951172 A 1.50015 1.50015 0 0 0 24.402344 40.949219L9.2070312 37.910156 A 1.50015 1.50015 0 0 0 9.2050781 37.910156C8.4941947 37.768284 8 37.165812 8 36.441406L8 11.558594C8 10.834188 8.4953832 10.230423 9.2070312 10.087891L24.402344 7.0488281 z M 28 11L37.5 11C38.898226 11 40 12.101774 40 13.5L40 35.5C40 36.898226 38.898226 38 37.5 38L28 38L28 11 z M 31.5 15 A 1.50015 1.50015 0 1 0 31.5 18L35.5 18 A 1.50015 1.50015 0 1 0 35.5 15L31.5 15 z M 12.998047 17.158203C12.709209 17.150498 12.414094 17.226453 12.152344 17.392578C11.454344 17.837578 11.249359 18.763891 11.693359 19.462891L14.681641 24.158203L11.693359 28.853516C11.249359 29.552516 11.454344 30.478828 12.152344 30.923828C12.402344 31.081828 12.681031 31.158203 12.957031 31.158203C13.452031 31.158203 13.938609 30.913844 14.224609 30.464844L16.458984 26.953125L18.693359 30.462891C18.980359 30.911891 19.465937 31.158203 19.960938 31.158203C20.236938 31.158203 20.513672 31.083828 20.763672 30.923828C21.461672 30.478828 21.668609 29.550563 21.224609 28.851562L18.238281 24.158203L21.224609 19.464844C21.668609 18.765844 21.461672 17.837578 20.763672 17.392578C20.066672 16.948578 19.139359 17.153516 18.693359 17.853516L16.458984 21.363281L14.224609 17.851562C13.946484 17.414062 13.479443 17.171045 12.998047 17.158203 z M 31.5 23 A 1.50015 1.50015 0 1 0 31.5 26L35.5 26 A 1.50015 1.50015 0 1 0 35.5 23L31.5 23 z M 31.5 31 A 1.50015 1.50015 0 1 0 31.5 34L35.5 34 A 1.50015 1.50015 0 1 0 35.5 31L31.5 31 z" fill="#FFFFFF" />
</svg>