<svg xmlns="http://www.w3.org/2000/svg" viewBox="0 0 48 48">
  <path d="M36.679688 5.0253906C33.760246 4.9345308 30.852754 6.0261525 28.697266 8.1816406L18.878906 18L10.757812 18C8.1483627 18 6 20.148362 6 22.757812C6 24.346353 6.7951624 25.833494 8.1171875 26.714844L9.5625 27.677734C8.6605283 29.159969 8.491665 30.961654 9.0878906 32.537109C8.1813306 32.755459 7.3215848 33.209665 6.6171875 33.914062C5.7543789 34.776871 5.4415246 35.81554 5.1425781 36.910156C4.8436317 38.004773 4.6523022 39.156255 4.5253906 40.101562C4.2669637 42.026942 5.9702775 43.73093 7.8964844 43.472656L7.8984375 43.472656C8.8434769 43.345781 9.9931628 43.154307 11.087891 42.855469C12.182618 42.55663 13.223052 42.244679 14.085938 41.380859C14.78981 40.676987 15.242654 39.817594 15.460938 38.912109C17.036799 39.509123 18.83949 39.3398 20.322266 38.4375L21.285156 39.882812C22.166506 41.204839 23.653647 42 25.242188 42C27.851638 42 30 39.851638 30 37.242188L30 29.5 A 1.50015 1.50015 0 0 0 29.964844 29.15625L39.816406 19.304688C43.101804 16.019293 43.920166 10.983703 41.841797 6.828125 A 1.50015 1.50015 0 0 0 41.171875 6.1582031C40.132981 5.6386109 39.037371 5.3010068 37.929688 5.1367188C37.514306 5.0751107 37.096751 5.0383706 36.679688 5.0253906 z M 36.583984 8.0175781C36.88507 8.0271344 37.186315 8.0548346 37.486328 8.0996094C38.112763 8.1931004 38.719105 8.4292534 39.320312 8.6796875C40.530267 11.584334 39.946776 14.93213 37.695312 17.183594L19.267578 35.611328C18.278914 36.599992 16.721086 36.599992 15.732422 35.611328L14.365234 34.244141L14.34375 34.21875L13.78125 33.65625L13.755859 33.634766L12.388672 32.267578C11.400008 31.278914 11.400008 29.721086 12.388672 28.732422L20.431641 20.689453 A 1.50015 1.50015 0 0 0 20.714844 20.40625L30.818359 10.302734C32.379871 8.7412229 34.476388 7.9506845 36.583984 8.0175781 z M 33 13 A 2 2 0 0 0 33 17 A 2 2 0 0 0 33 13 z M 28 18 A 2 2 0 0 0 28 22 A 2 2 0 0 0 28 18 z M 10.757812 21L15.878906 21L11.507812 25.371094L9.78125 24.21875C9.2912751 23.8921 9 23.347272 9 22.757812C9 21.769263 9.7692633 21 10.757812 21 z M 27 32.121094L27 37.242188C27 38.230736 26.230737 39 25.242188 39C24.652728 39 24.1079 38.708725 23.78125 38.21875L22.628906 36.492188L27 32.121094 z M 10.25 35.369141C10.784832 35.350699 11.325201 35.532696 11.773438 35.896484L12.103516 36.226562C12.83791 37.131276 12.807523 38.417086 11.964844 39.259766L11.962891 39.261719C11.901771 39.322899 11.184101 39.721229 10.298828 39.962891C9.4141981 40.204343 8.3646275 40.383869 7.5 40.5C7.6160884 39.635308 7.7953058 38.586555 8.0371094 37.701172C8.2789129 36.815789 8.6770899 36.096348 8.7382812 36.035156C9.1642782 35.609159 9.7035761 35.387985 10.25 35.369141 z" fill="#FFFFFF" />
</svg>